<?xml version="1.0" standalone="no"?>
<!DOCTYPE svg PUBLIC "-//W3C//DTD SVG 20010904//EN"
 "http://www.w3.org/TR/2001/REC-SVG-20010904/DTD/svg10.dtd">
<svg version="1.0" xmlns="http://www.w3.org/2000/svg"
 width="5000.000000pt" height="3171.000000pt" viewBox="0 0 5000.000000 3171.000000"
 preserveAspectRatio="xMidYMid meet">

<g transform="translate(0.000000,3171.000000) scale(0.100000,-0.100000)"
fill="#000000" stroke="none">
<path d="M29800 29666 c-288 -60 -537 -223 -694 -454 -141 -208 -200 -404
-194 -644 l3 -123 -9746 -2704 -9746 -2703 -139 35 c-194 49 -317 61 -531 54
-134 -4 -208 -12 -299 -31 -325 -68 -613 -217 -823 -426 -96 -95 -109 -110
-167 -195 -119 -176 -193 -372 -209 -560 l-7 -80 1576 0 1577 0 -7 65 c-3 36
-12 94 -19 130 -8 36 -12 66 -11 68 2 1 4183 1325 9292 2942 5109 1617 9315
2949 9346 2959 l57 19 55 -76 c60 -86 117 -148 191 -207 28 -22 52 -42 55 -45
3 -3 28 -20 55 -37 85 -54 221 -113 323 -141 87 -23 114 -26 272 -25 157 0
185 2 275 26 470 126 801 535 822 1018 7 155 -7 259 -53 399 -117 350 -396
615 -756 716 -80 23 -117 27 -263 30 -116 2 -190 -1 -235 -10z"/>
<path d="M24588 18163 l-3 -838 -4415 -1 c-2428 -1 -4583 -2 -4787 -3 l-373
-1 0 -150 0 -150 4790 0 4790 0 0 -747 c0 -412 0 -754 0 -760 0 -10 46 -13
195 -13 149 0 195 3 195 13 0 6 0 348 0 760 l0 747 2213 0 2212 0 0 144 c0 80
-3 148 -7 152 -4 4 -999 8 -2210 8 -1755 1 -2203 4 -2204 14 -1 6 -2 383 -3
837 l-1 825 -195 0 -195 0 -2 -837z"/>
<path d="M39325 18984 c-500 -24 -821 -52 -1102 -96 l-73 -11 0 -2683 0 -2684
23 -4 c20 -5 100 -14 257 -31 359 -38 1223 -58 1557 -36 1083 71 1856 381
2348 943 186 212 346 485 453 773 248 666 267 1531 47 2190 -61 180 -181 421
-282 560 -23 33 -51 71 -60 85 -10 13 -58 69 -107 124 -340 376 -834 649
-1396 770 -349 76 -602 98 -1150 101 -245 1 -476 1 -515 -1z m996 -968 c487
-80 830 -282 1071 -631 84 -122 171 -318 212 -480 54 -216 61 -277 60 -605 0
-267 -3 -322 -22 -440 -125 -762 -539 -1237 -1222 -1403 -207 -51 -320 -61
-640 -61 -162 1 -315 5 -340 10 l-45 10 0 1789 0 1790 70 12 c135 25 253 31
505 28 170 -2 287 -8 351 -19z"/>
<path d="M34100 18947 c0 -4 -87 -292 -143 -477 -98 -319 -301 -982 -317
-1035 -27 -91 -396 -1298 -500 -1635 -71 -231 -108 -353 -270 -885 -89 -291
-218 -714 -287 -940 -69 -225 -131 -429 -138 -452 l-13 -43 641 0 642 0 29
108 c16 59 52 190 81 292 29 102 103 371 166 597 l114 413 782 0 781 0 11 -32
c15 -50 249 -830 281 -938 25 -86 75 -251 117 -387 l16 -53 663 0 c365 0 664
2 664 5 0 8 -192 634 -210 685 -5 14 -25 79 -45 145 -20 66 -61 197 -90 290
-30 94 -60 193 -69 220 -8 28 -35 118 -61 200 -26 83 -55 177 -65 210 -10 33
-41 134 -70 225 -28 91 -67 217 -86 280 -20 63 -40 126 -44 140 -5 14 -36 113
-69 220 -33 107 -92 299 -131 425 -68 217 -83 264 -129 418 -10 34 -32 105
-49 157 -17 52 -49 156 -72 230 -23 74 -63 205 -90 290 -72 234 -124 402 -165
535 -20 66 -40 131 -45 145 -5 14 -25 79 -45 145 -20 66 -52 167 -70 225 -19
58 -46 144 -60 193 l-26 87 -815 0 c-448 0 -814 -1 -814 -3z m849 -1219 c76
-310 92 -370 161 -613 36 -126 61 -214 183 -630 50 -172 121 -411 161 -545 18
-63 32 -118 29 -122 -2 -5 -272 -8 -599 -8 -487 0 -594 2 -594 13 0 13 78 298
169 617 21 74 55 196 76 270 20 74 43 155 50 180 42 136 105 399 205 843 59
260 69 297 78 297 4 0 40 -136 81 -302z"/>
<path d="M8643 17322 l-343 -2 0 -150 0 -150 2705 0 2705 0 0 150 0 150 -277
1 c-763 3 -4492 4 -4790 1z"/>
<path d="M10250 13655 c-197 -56 -359 -206 -427 -400 l-28 -80 -3 -2813 c-2
-3090 -6 -2883 58 -3020 60 -128 152 -221 285 -287 340 -168 734 12 851 390
18 58 19 157 19 2880 0 3096 5 2865 -62 2999 -78 157 -190 259 -345 314 -93
32 -262 40 -348 17z"/>
<path d="M12942 13655 c-59 -17 -177 -73 -213 -102 -103 -83 -184 -199 -226
-323 -17 -53 -18 -163 -21 -2855 -2 -1943 1 -2821 8 -2869 58 -375 474 -617
815 -473 177 75 304 208 363 382 l27 80 0 2825 c0 2340 -2 2834 -14 2880 -49
200 -201 370 -392 437 -93 33 -263 42 -347 18z"/>
<path d="M15675 13664 c-212 -53 -352 -160 -436 -332 -74 -151 -70 70 -66
-3042 3 -3110 -4 -2818 72 -2970 51 -103 161 -211 266 -263 197 -97 413 -85
593 33 155 101 248 244 276 420 8 56 10 796 8 2870 l-3 2795 -25 71 c-50 140
-140 256 -260 333 -95 62 -167 83 -295 87 -60 1 -119 1 -130 -2z"/>
<path d="M18345 13659 c-227 -55 -399 -218 -462 -440 -17 -61 -18 -185 -18
-2894 l0 -2830 27 -81 c70 -206 251 -366 464 -410 328 -68 663 167 714 502 7
48 10 928 8 2869 l-3 2800 -28 78 c-63 178 -190 311 -362 379 -69 27 -95 32
-190 34 -60 2 -128 -1 -150 -7z"/>
<path d="M21017 13655 c-202 -51 -365 -205 -435 -410 l-27 -80 -3 -2765 c-1
-1702 1 -2798 7 -2851 25 -221 142 -394 334 -490 189 -96 394 -89 576 20 126
75 215 184 269 333 l27 73 3 2810 c2 2018 0 2828 -8 2875 -11 61 -72 209 -102
245 -89 108 -175 174 -281 216 -71 28 -97 33 -192 35 -73 2 -129 -1 -168 -11z"/>
<path d="M23725 13659 c-70 -16 -128 -41 -195 -84 -119 -77 -199 -174 -249
-302 l-26 -68 -3 -2848 c-2 -2571 -1 -2854 14 -2910 42 -162 158 -305 312
-385 332 -173 714 -15 855 354 l22 59 3 2810 c2 2135 0 2827 -9 2880 -40 237
-217 428 -454 489 -64 17 -205 20 -270 5z"/>
<path d="M26398 13655 c-168 -42 -314 -160 -393 -316 -70 -138 -65 116 -65
-3002 0 -1981 3 -2832 11 -2869 19 -96 85 -214 163 -292 112 -113 281 -186
425 -186 253 1 491 170 579 411 l27 74 3 2828 c2 3138 8 2887 -64 3035 -63
130 -203 251 -349 303 -78 28 -254 35 -337 14z"/>
<path d="M32040 10477 c-77 -38 -204 -78 -325 -103 -11 -2 -31 -6 -45 -9 -14
-3 -45 -8 -70 -11 -77 -9 -76 -8 -103 -107 -166 -595 -56 -1190 311 -1680 67
-90 232 -265 302 -322 693 -558 1627 -591 2335 -83 55 40 113 83 129 97 53 47
227 225 237 243 8 15 -10 27 -143 94 -182 91 -349 179 -400 211 -21 13 -40 23
-43 23 -15 0 -395 235 -580 358 -537 357 -999 742 -1416 1177 -68 72 -128 131
-134 132 -5 1 -30 -8 -55 -20z"/>
<path d="M7196 4871 c-46 -337 115 -648 409 -791 162 -78 95 -74 1085 -78 629
-2 908 0 965 8 385 56 665 394 642 777 -3 50 -10 100 -15 110 -10 17 -75 18
-1545 18 l-1535 0 -6 -44z"/>
<path d="M33217 4902 c-6 -8 -13 -64 -15 -126 -4 -92 0 -128 17 -196 77 -305
298 -513 600 -565 77 -14 212 -15 977 -12 808 3 895 5 954 20 203 55 388 204
480 387 58 115 75 192 75 342 0 99 -4 141 -13 150 -20 20 -3059 19 -3075 0z"/>
</g>
</svg>
